<?xml version="1.0" standalone="no"?>
<!DOCTYPE svg PUBLIC "-//W3C//DTD SVG 20010904//EN"
 "http://www.w3.org/TR/2001/REC-SVG-20010904/DTD/svg10.dtd">
<svg version="1.0" xmlns="http://www.w3.org/2000/svg"
 width="360.000000pt" height="360.000000pt" viewBox="0 0 360.000000 360.000000"
 preserveAspectRatio="xMidYMid meet">
<metadata>
Created by potrace 1.11, written by Peter Selinger 2001-2013
</metadata>
<g transform="translate(0.000000,360.000000) scale(0.100000,-0.100000)"
fill="#000000" stroke="none">
<path d="M0 1800 l0 -1800 1800 0 1800 0 0 1800 0 1800 -1800 0 -1800 0 0
-1800z m1300 1156 l0 -104 -104 -4 c-118 -3 -147 -16 -178 -79 -16 -30 -18
-71 -18 -385 0 -406 -3 -427 -73 -491 -38 -35 -62 -48 -120 -67 -27 -9 -16
-26 24 -40 53 -19 105 -64 136 -121 l28 -50 5 -380 c4 -342 7 -384 23 -408 33
-50 62 -61 174 -65 l103 -4 0 -105 0 -105 -167 5 c-93 2 -185 10 -206 17 -51
15 -115 75 -141 130 -20 43 -21 66 -26 450 -4 296 -9 413 -19 435 -27 65 -84
104 -166 114 l-50 6 -3 97 -3 97 38 6 c99 17 141 43 176 108 21 41 22 52 27
447 6 446 5 439 70 514 63 71 110 84 318 85 l152 1 0 -104z m1446 77 c22 -12
57 -40 77 -62 63 -70 67 -98 67 -511 0 -395 5 -444 52 -487 36 -32 85 -54 139
-60 l50 -6 -3 -101 -3 -101 -53 -7 c-92 -14 -150 -60 -172 -136 -6 -22 -10
-182 -10 -403 0 -405 -3 -432 -63 -511 -19 -25 -53 -53 -82 -68 -47 -23 -62
-25 -227 -28 l-178 -4 0 105 0 104 100 6 c115 6 155 23 182 77 16 31 18 72 18
380 0 358 5 412 42 466 25 36 101 90 141 100 36 8 31 23 -14 38 -59 20 -107
64 -136 124 l-28 57 -5 375 c-4 337 -7 379 -23 403 -32 49 -61 60 -173 65
l-104 5 0 104 0 105 183 -4 c164 -3 186 -5 223 -25z"/>
</g>
</svg>
